<?xml version="1.0" encoding="iso-8859-1"?>
<!-- Generator: Adobe Illustrator 16.0.0, SVG Export Plug-In . SVG Version: 6.00 Build 0)  -->
<!DOCTYPE svg PUBLIC "-//W3C//DTD SVG 1.1//EN" "http://www.w3.org/Graphics/SVG/1.1/DTD/svg11.dtd">
<svg xmlns="http://www.w3.org/2000/svg" xmlns:xlink="http://www.w3.org/1999/xlink" version="1.1" id="Capa_1" x="0px" y="0px" width="128px" height="128px" viewBox="0 0 572.122 572.122" style="enable-background:new 0 0 572.122 572.122;" xml:space="preserve">
<g>
	<g>
		<path d="M391.266,258.134c31.212,4.284,70.686,15.606,98.838,3.061c31.212-13.771,43.452-78.03,46.512-106.183    c0.612-5.813-8.874-8.262-11.322-3.06c-12.239,27.54-13.464,80.478-42.84,97.002c-10.098,5.813-25.092,3.672-36.107,2.754    c-18.055-1.224-36.108-2.754-54.162-3.672c0.918-10.404,0.611-20.502-0.612-30.601c13.158,0.919,31.824-6.731,41.922-10.098    c17.136-5.202,27.54-10.098,36.108-26.622c12.24-24.479-0.918-64.872-14.994-85.68c-4.59-6.732-13.771-2.448-12.546,5.202    c3.672,21.113,15.912,38.556,16.218,60.894c0.306,12.24-7.65,17.748-11.628,27.54c2.142-5.202-3.979,0.306-7.956,2.143    c-11.016,4.59-22.338,8.262-33.966,11.321c-4.284,1.225-8.874,2.143-13.464,3.061c-0.307,0-0.612,0-1.225,0    c0.918-1.225,1.836-2.143,3.061-3.061c1.529-1.224-0.307-3.366-1.836-2.448c-0.918,0.612-1.836,0.919-2.754,1.837    c-11.017-40.087-42.229-70.381-97.002-64.566c-7.039-41.616-7.344-88.128-4.896-129.744c0-2.142-1.224-4.59-3.06-5.508    c0.306,0,0.306,0,0.612-0.306c0.612,0.306,0.918-0.612,0.612-0.918c-1.836-1.225-2.142,0.306-4.284,0    c-2.754,0-5.508,2.142-6.12,4.896c-9.792,41.922-5.814,93.942,1.53,136.476c-58.14-22.644-104.346,57.834-106.794,109.242    c-0.306,8.263,0.306,15.912,2.142,23.562h-0.306c-18.666,3.978-36.108,13.157-54.468,19.277    c-27.234,8.874-34.884-15.911-43.452-37.638c-7.65-18.666-12.852-37.943-17.442-57.222c-2.142-9.18-1.224-27.234-9.792-33.048    c-2.142-1.225-4.284-0.612-6.12,0.918c-10.404,7.956,1.53,37.638,3.978,47.124c6.426,25.397,14.688,50.489,26.928,73.745    c6.732,12.853,17.442,26.929,33.66,23.868c24.48-4.284,46.818-18.054,68.544-29.682c10.098,33.66,38.556,59.976,71.91,71.604    c-5.202,2.754-9.486,6.732-12.852,11.017c-26.622-4.284-52.632-11.322-79.254-14.076c-25.398-2.448-37.332,11.016-48.042,32.742    c-14.076,29.376-36.414,115.361-3.978,140.76c5.508,4.284,13.464-0.918,10.098-7.65c-17.748-35.496-7.344-85.68,5.508-121.176    c18.36-49.878,67.932-24.174,109.242-20.196c-4.284,9.181-5.508,19.891-3.672,30.906c0.306,1.836,0.918,3.672,1.53,5.508    c-39.474-3.978-71.604,14.076-65.178,59.67c4.896,35.19,41.616,97.002,80.784,100.98c5.814,0.612,8.568-7.65,4.59-11.322    c-10.404-9.792-23.256-15.912-33.66-26.315c-13.77-13.771-24.48-31.212-31.824-49.267c-5.508-13.77-8.874-30.294-2.448-44.37    c8.262-18.666,32.13-20.195,50.796-20.195c9.18,22.949,29.682,38.556,55.692,40.697c-0.306,0.612-0.612,1.53-0.306,2.448    c-0.306,0-0.612,0.307-0.612,0.307c-6.732,5.508-11.628,14.993-16.83,21.726c-4.284,5.508-8.874,11.628-11.934,18.054    c-9.792-13.464-2.754-28.458,0.612-45.288c0.918-5.202-6.732-7.649-7.956-2.142c-2.448,11.016-7.038,22.032-7.65,33.66    c-0.612,11.016,6.426,19.89,12.852,27.846c2.142,2.754,7.344,1.836,8.568-1.224c5.202-10.404,11.628-19.278,18.666-28.458    c3.978-4.896,8.874-10.099,11.322-16.219c10.404,10.099,23.257,16.219,26.316,33.049c0.918,4.283,6.732,5.508,9.792,2.447    c8.874-8.874,15.912-18.666,16.218-31.518c0.307-11.628-6.12-23.868-9.18-34.884c6.731-6.732,12.546-14.382,15.912-22.95    c0.918-2.448,1.53-4.59,2.448-7.038c22.644,2.754,43.451,7.65,64.871,15.3c-1.224,15.606-4.896,30.906-8.873,45.9    c-2.143,8.567-17.748,43.452-14.688,47.124c-3.978-4.284-12.852,0.306-10.404,6.12c8.263,20.502,24.48-2.143,28.765-12.546    c11.628-28.458,20.195-60.895,20.808-91.801c0-3.672-2.448-6.12-5.508-7.344c-22.645-8.262-48.349-12.546-72.828-12.24    c0.918-8.567,0-16.523-2.448-24.174c0.918-0.306,1.836-0.611,3.061-1.224c9.485-3.672,18.972-6.732,28.458-10.099    c22.949-7.649,44.063-15.911,64.26,1.53c33.048,28.458,30.906,81.396,28.152,120.258c-0.307,4.896,6.426,7.345,9.485,3.979    c13.158-14.382,8.568-42.84,6.12-60.282c-4.59-29.07-14.076-58.446-37.026-78.03c-20.195-17.136-40.697-11.628-63.647-4.59    c-11.628,3.672-32.437,8.263-43.758,17.137c-3.672-6.427-8.568-12.24-14.382-17.442    C364.337,331.88,385.146,295.771,391.266,258.134z M322.109,492.836c-2.754-5.508-6.426-10.099-11.628-14.076    c-7.65-6.12-16.524-9.792-22.95-17.136c11.934-0.307,23.562-4.284,33.66-11.017c1.836,6.12,4.284,12.24,6.12,18.36    C330.371,478.454,327.312,485.798,322.109,492.836z M292.428,447.548c-41.004,8.874-69.462-39.474-56.917-72.216    c0.918,0,1.836,0,2.754,0c4.896-0.307,6.732-7.344,2.448-9.181c3.06-3.978,6.426-7.649,11.322-10.71    c18.972,5.509,38.862,6.427,58.141,1.53c2.142-0.612,3.978-1.224,6.119-1.836c0.307,0.306,0.307,0.612,0.918,0.918    C355.77,384.817,336.797,438.062,292.428,447.548z M328.229,332.798c-49.266,34.578-123.93-1.224-141.066-54.468    c-20.808-64.26,28.764-124.236,90.576-128.214c2.142,3.06,6.12,3.06,9.486,1.836c0.611,0,1.529,0.306,2.447,0.306    C400.751,138.182,399.833,282.92,328.229,332.798z" fill="#933EC5"/>
		<path d="M170.333,214.376c-17.748,9.486-37.332,13.464-57.222,11.322c2.448-21.42,4.896-42.84,7.956-64.26    c3.06-20.809,12.24-41.005,14.994-61.507c0.612-5.508-4.896-9.485-9.486-5.508c-13.77,12.24-15.606,38.557-18.666,55.386    c-4.896,27.234-7.038,54.469-10.404,82.009c-0.306,3.06,2.448,6.731,5.508,7.344c29.07,3.978,48.654-1.836,70.38-20.808    C175.535,216.518,172.781,213.152,170.333,214.376z" fill="#933EC5"/>
	</g>
</g>
<g>
</g>
<g>
</g>
<g>
</g>
<g>
</g>
<g>
</g>
<g>
</g>
<g>
</g>
<g>
</g>
<g>
</g>
<g>
</g>
<g>
</g>
<g>
</g>
<g>
</g>
<g>
</g>
<g>
</g>
</svg>
